<svg xmlns="http://www.w3.org/2000/svg"  viewBox="0 0 48 48" width="48px" height="48px" baseProfile="basic"><path fill="#373837" d="M33.158,16.765l-0.625-1.545l5.02-4.377c0,0,1.159,1.655,1.103,1.655	c-0.055,0-4.119,4.138-4.119,4.138L33.158,16.765z"/><path fill="#373837" d="M26.001,6.97c-1.195,0.319-1.992,2.124-1.62,3.001c0.372,0.876,1.381,1.407,1.381,1.407	s-8.019,5.948-10.887,6.585c0,0,5.151,1.407,7.09-0.266c0,0-1.646,4.488,1.646,4.7c3.293,0.212,5.39-0.133,5.39-0.133	s-1.275,4.673-1.328,4.7c-0.053,0.027,3.24,1.275,3.24,1.275l-1.275-2.045l0.85-1.938l2.602,4.62l3.186-1.46	c0,0-2.762-0.929-2.841-0.903c-0.08,0.027-2.177-6.798-3.001-6.877c-0.823-0.08-4.859-0.133-4.859-0.133s1.965-2.576,1.912-3.558	c0,0,1.753,2.204,2.762,2.124c1.009-0.08,2.23-0.69,2.23-0.69s2.762,0.85,3.425-0.584l-5.603-0.266l-0.457-1.09l3.048-0.598	l-3.547-0.649c0,0-1.434-2.363-2.071-2.337c0,0,1.407-1.062,1.407-1.726s-0.053-3.664-2.523-3.266"/><path fill="#373837" d="M12.07,24.019l0.418,2.323c0,0-1.801,1.383-1.853,1.435c-0.052,0.052,2.375,0.391,2.375,0.391	l0.757,2.479l1.018-2.192l2.897-0.418l-2.218-1.514l0.809-2.453l-2.505,1.148L12.07,24.019z"/><path fill="#373837" d="M6.044,29.222l0.726-2.557l-2.121,1.191l-2.121-1.395l0.581,2.266c0,0-1.627,1.714-1.714,1.627	c-0.087-0.087,2.208,0.465,2.208,0.465l0.755,2.412l1.075-2.354l2.877-0.203L6.044,29.222z"/><polygon fill="#373837" points="9.269,33.116 9.908,35.76 7.787,37.068 10.344,37.503 11.158,40.148 12.175,37.358 14.47,37.184 12.872,35.615 13.686,33.435 11.361,34.598"/><path fill="none" stroke="#010101" stroke-linecap="round" stroke-linejoin="round" stroke-miterlimit="10" d="M12.07,24.019	l0.418,2.323c0,0-1.801,1.383-1.853,1.435c-0.052,0.052,2.375,0.391,2.375,0.391l0.757,2.479l1.018-2.192l2.897-0.418l-2.218-1.514	l0.809-2.453l-2.505,1.148L12.07,24.019z"/><path fill="none" stroke="#010101" stroke-linecap="round" stroke-linejoin="round" stroke-miterlimit="10" d="M6.044,29.222	l0.726-2.557l-2.121,1.191l-2.121-1.395l0.581,2.266c0,0-1.627,1.714-1.714,1.627c-0.087-0.087,2.208,0.465,2.208,0.465l0.755,2.412	l1.075-2.354l2.877-0.203L6.044,29.222z"/><polygon fill="none" stroke="#010101" stroke-linecap="round" stroke-linejoin="round" stroke-miterlimit="10" points="9.269,33.116 9.908,35.76 7.787,37.068 10.344,37.503 11.158,40.148 12.175,37.358 14.47,37.184 12.872,35.615 13.686,33.435 11.361,34.598"/><line x1="29.506" x2="28.229" y1="7.315" y2="7.834" fill="none" stroke="#010101" stroke-linecap="round" stroke-linejoin="round" stroke-miterlimit="10"/><path fill="none" stroke="#010101" stroke-linecap="round" stroke-linejoin="round" stroke-miterlimit="10" d="M26.001,6.97	c-1.195,0.319-1.992,2.124-1.62,3.001c0.372,0.876,1.381,1.407,1.381,1.407s-8.019,5.948-10.887,6.585c0,0,5.151,1.407,7.09-0.266	c0,0-1.457,4.63,1.837,4.429c3.375-0.206,5.339-0.301,5.339-0.301s-1.414,5.112-1.467,5.139c-0.053,0.027,3.24,1.275,3.24,1.275	l-1.275-2.045l0.696-2.929l2.756,5.611l3.186-1.46c0,0-2.561-1.115-2.641-1.088c-0.08,0.027-2.377-6.612-3.201-6.692	c-0.823-0.08-4.859-0.133-4.859-0.133s1.965-2.576,1.912-3.558c0,0,1.753,2.204,2.762,2.124c1.009-0.08,2.23-0.69,2.23-0.69	s2.762,0.85,3.425-0.584l-5.603-0.266l-0.457-1.09l3.048-0.598l-3.547-0.649c0,0-1.434-2.363-2.071-2.337	c0,0,1.407-1.062,1.407-1.726s-0.053-3.664-2.523-3.266"/><line x1="21.34" x2="23.033" y1="24.113" y2="22.522" fill="none" stroke="#010101" stroke-linecap="round" stroke-linejoin="round" stroke-miterlimit="10"/><path fill="none" stroke="#010101" stroke-linecap="round" stroke-linejoin="round" stroke-miterlimit="10" d="M30.596,33.422	c0,3.038-2.558,5.078-5.596,5.078s-5.5-1.962-5.5-5s2.462-6,5.5-6S30.596,30.384,30.596,33.422z"/><path fill="none" stroke="#010101" stroke-linecap="round" stroke-linejoin="round" stroke-miterlimit="10" d="M46.596,23.422	c0,3.038-2.558,5.078-5.596,5.078s-5.472-2.448-5.472-5.486s3.131-5.141,6.169-5.141C44.735,17.874,46.596,20.384,46.596,23.422z"/><line x1="23.433" x2="27.878" y1="22.449" y2="25.856" fill="none" stroke="#010101" stroke-linecap="round" stroke-linejoin="round" stroke-miterlimit="10"/><path fill="none" stroke="#010101" stroke-linecap="round" stroke-linejoin="round" stroke-miterlimit="10" d="M29.001,22.265	l-3.304,1.927c0,0-0.23,7.74-0.65,8.808c-0.419,1.069,5.514-3.173,5.514-3.173"/><circle cx="31.758" cy="28.924" r="1.376" fill="#010101"/><path fill="none" stroke="#010101" stroke-linecap="round" stroke-linejoin="round" stroke-miterlimit="10" d="M31.07,20.286	l3.071-2.757c0,0,3.796,3.651,7.061,5.707"/><line x1="33.628" x2="32.805" y1="17.655" y2="24.093" fill="none" stroke="#010101" stroke-linecap="round" stroke-linejoin="round" stroke-miterlimit="10"/><path fill="none" stroke="#010101" stroke-linecap="round" stroke-linejoin="round" stroke-miterlimit="10" d="M33.158,16.765	l-0.625-1.545l5.02-4.377c0,0,1.159,1.655,1.103,1.655c-0.055,0-4.119,4.138-4.119,4.138L33.158,16.765z"/><polygon fill="none" stroke="#010101" stroke-linecap="round" stroke-linejoin="round" stroke-miterlimit="10" points="31.758,12.505 32.225,12.476 35.225,9.674 34.703,9.648"/><path fill="#010101" d="M29.441,15.775l-0.621-1.509l2.511,0.178c0,0-1.402,1.141-1.426,1.188	C29.88,15.68,29.441,15.775,29.441,15.775z"/></svg>